HIERARCHY
ROOT root
{
	OFFSET 0.000000 0.000000 0.000000
	CHANNELS 6 Xposition Yposition Zposition Zrotation Yrotation Xrotation
	JOINT lhip
	{
		OFFSET 0.058581 -0.082280 -0.017664
		CHANNELS 3 Zrotation Yrotation Xrotation
		JOINT lknee
		{
			OFFSET 0.043451 -0.386469 0.008037
			CHANNELS 3 Zrotation Yrotation Xrotation
			JOINT lankle
			{
				OFFSET -0.014790 -0.426874 -0.037428
				CHANNELS 3 Zrotation Yrotation Xrotation
				JOINT ltoe
				{
					OFFSET 0.041054 -0.060286 0.122042
					CHANNELS 3 Zrotation Yrotation Xrotation
					End Site
					{
						OFFSET 0.000000 0.000000 0.000000
					}
				}
			}
		}
	}
	JOINT rhip
	{
		OFFSET -0.060310 -0.090513 -0.013543
		CHANNELS 3 Zrotation Yrotation Xrotation
		JOINT rknee
		{
			OFFSET -0.043257 -0.383688 -0.004843
			CHANNELS 3 Zrotation Yrotation Xrotation
			JOINT rankle
			{
				OFFSET 0.019056 -0.420046 -0.034562
				CHANNELS 3 Zrotation Yrotation Xrotation
				JOINT rtoe
				{
					OFFSET -0.034840 -0.062106 0.130323
					CHANNELS 3 Zrotation Yrotation Xrotation
					End Site
					{
						OFFSET 0.000000 0.000000 0.000000
					}
				}
			}
		}
	}
	JOINT lowerback
	{
		OFFSET 0.004439 0.124404 -0.038385
		CHANNELS 3 Zrotation Yrotation Xrotation
		JOINT upperback
		{
			OFFSET 0.004488 0.137956 0.026820
			CHANNELS 3 Zrotation Yrotation Xrotation
			JOINT chest
			{
				OFFSET -0.002265 0.056032 0.002855
				CHANNELS 3 Zrotation Yrotation Xrotation
				JOINT lowerneck
				{
					OFFSET -0.013390 0.211636 -0.033468
					CHANNELS 3 Zrotation Yrotation Xrotation
					JOINT upperneck
					{
						OFFSET 0.010113 0.088937 0.050410
						CHANNELS 3 Zrotation Yrotation Xrotation
						End Site
						{
							OFFSET 0.000000 0.000000 0.000000
						}
					}
				}
				JOINT lclavicle
				{
					OFFSET 0.071702 0.114000 -0.018898
					CHANNELS 3 Zrotation Yrotation Xrotation
					JOINT lshoulder
					{
						OFFSET 0.122921 0.045205 -0.019046
						CHANNELS 3 Zrotation Yrotation Xrotation
						JOINT lelbow
						{
							OFFSET 0.255332 -0.015649 -0.022946
							CHANNELS 3 Zrotation Yrotation Xrotation
							JOINT lwrist
							{
								OFFSET 0.265709 0.012698 -0.007375
								CHANNELS 3 Zrotation Yrotation Xrotation
								End Site
								{
									OFFSET 0.000000 0.000000 0.000000
								}
							}
						}
					}
				}
				JOINT rclavicle
				{
					OFFSET -0.082954 0.112472 -0.023707
					CHANNELS 3 Zrotation Yrotation Xrotation
					JOINT rshoulder
					{
						OFFSET -0.113228 0.046853 -0.008472
						CHANNELS 3 Zrotation Yrotation Xrotation
						JOINT relbow
						{
							OFFSET -0.260127 -0.014369 -0.031269
							CHANNELS 3 Zrotation Yrotation Xrotation
							JOINT rwrist
							{
								OFFSET -0.269108 0.006794 -0.006027
								CHANNELS 3 Zrotation Yrotation Xrotation
								End Site
								{
									OFFSET 0.000000 0.000000 0.000000
								}
							}
						}
					}
				}
			}
		}
	}
}
MOTION
Frames: 11
Frame Time: 0.033333
2.346867 0.709965 0.908241 -110.763780 4.910428 105.990925 5.524373 2.399044 -54.520368 -8.106283 -7.475192 27.778254 3.365179 9.791593 -7.693277 0.000000 -0.000000 0.000000 12.155489 -2.219287 -23.556190 -5.657572 6.631686 46.627292 -4.914591 -50.032832 -40.291707 0.000000 -0.000000 0.000000 -3.051736 7.550564 35.128674 -4.020849 1.427767 -1.716333 -1.240150 0.056532 13.969878 -2.348697 -8.023764 -12.569360 -5.217841 -14.431835 20.174898 16.130271 -12.546217 -39.248478 15.367231 -34.081377 -10.477390 12.005797 -27.019312 -41.931510 32.613392 -10.360584 -34.291707 -26.815746 19.311222 -46.302696 -22.206476 54.397593 -32.000490 -16.058897 3.846956 -55.219135 3.555139 25.577612 -8.233573 
2.237768 0.718643 0.885979 -109.946429 6.474857 114.124486 10.498054 1.921136 -65.100161 -11.622709 0.626080 40.711467 2.116203 6.376365 -8.420904 0.000000 -0.000000 0.000000 10.283365 -3.584446 -19.394970 -6.280176 6.421387 36.548602 -0.303195 -48.026169 -43.265097 0.000000 -0.000000 0.000000 -6.752077 9.949605 37.648360 -1.797668 -3.142634 -2.332262 -0.135569 0.217905 12.679873 -2.008053 -7.758621 -15.184926 -7.623162 -20.755410 21.210384 17.698785 -13.266467 -33.210788 20.418397 -31.239081 -15.340057 15.474812 -27.105431 -54.144782 38.865023 -12.188602 -38.487101 -25.921897 19.740025 -46.879956 -25.429700 55.245263 -31.836105 -15.451353 2.219240 -52.621913 1.496510 24.578279 -11.647041 
2.123227 0.723807 0.880675 -109.626919 11.413696 124.664935 12.910515 4.365171 -72.694068 -11.222110 1.614117 46.872739 6.676252 4.628141 -13.483159 0.000000 -0.000000 0.000000 8.497639 -12.625886 -15.563082 -2.223644 11.638339 20.062406 -17.702930 -27.802870 14.425448 0.000000 -0.000000 0.000000 -7.815539 13.561640 38.546150 -0.746935 -5.241714 -3.416513 0.766577 1.107899 10.768783 -3.016995 -6.686450 -22.505527 -8.188573 -23.635994 23.388468 21.115648 -15.785917 -30.089893 22.341471 -30.029579 -20.159388 16.135853 -23.884038 -53.563453 38.333621 -16.751651 -35.465973 -23.434241 21.962233 -44.854630 -28.803281 52.634190 -37.086518 -15.944550 2.096403 -50.856084 3.138357 25.671199 -11.445842 
1.954533 0.732816 0.896430 -109.677730 27.068478 143.198486 24.475586 13.473618 -76.730147 -6.302542 5.791123 48.509250 19.303718 13.592754 -2.917983 0.000000 -0.000000 0.000000 4.789669 -14.827695 -11.959533 12.232215 39.639770 16.504644 8.967465 -10.351523 57.221853 0.000000 -0.000000 0.000000 -11.281245 18.422555 30.615022 0.523591 -1.125467 0.619947 0.804744 3.922352 5.815201 -3.585132 -7.163735 -23.163108 -2.303634 -20.097608 19.270420 22.724991 -14.719464 -23.719370 21.822199 -30.716564 -26.607146 22.930129 -24.896197 -55.225354 36.150045 -10.984866 -27.639674 -21.668885 23.246112 -34.507470 -37.538565 45.308894 -46.734245 -16.045359 1.231875 -49.645065 8.753432 22.317364 -14.195294 
1.899380 0.732910 0.900880 -108.856085 31.221365 148.970983 27.811204 15.037278 -76.432598 -3.016063 8.014517 48.292501 27.166205 17.943309 13.207260 0.000000 -0.000000 0.000000 0.373451 -14.556171 -9.834567 12.829661 36.406263 18.647289 11.021980 -11.545814 52.859148 0.000000 -0.000000 0.000000 -12.590316 19.102119 26.842046 0.214733 0.291580 2.834659 0.909265 4.504901 3.826133 -3.176204 -7.096077 -24.159152 -0.653337 -17.999801 18.892475 21.987667 -16.554561 -21.802351 21.112816 -29.432757 -24.644879 23.514344 -25.141141 -54.451012 36.426009 -10.815528 -24.222704 -20.851561 26.683656 -31.906464 -39.032020 42.682767 -47.893934 -15.464100 2.564032 -50.380184 6.972585 20.223017 -11.374016 
1.783903 0.729717 0.928417 -101.983226 37.825378 162.670907 31.799526 16.639719 -75.433542 2.868471 8.515499 45.071547 28.069919 20.450488 21.487988 0.000000 -0.000000 0.000000 -4.552612 -12.969847 -5.502173 7.514451 29.577339 19.116060 10.960142 -7.974027 39.038047 0.000000 -0.000000 0.000000 -13.402181 20.507385 23.969645 -0.505562 1.434795 2.497698 1.769335 5.778350 0.452567 -3.134724 -4.012487 -25.921479 2.505563 -14.151827 17.648180 23.733412 -19.574035 -21.688307 12.407781 -28.467929 -19.336921 28.583146 -22.665101 -44.237602 24.771234 -10.319145 -16.060784 -18.714347 31.500805 -29.773907 -34.176382 42.609639 -47.643827 -20.161190 6.413587 -48.392656 12.416169 20.188665 -9.641702 
1.664816 0.735953 0.962676 -89.803083 42.147526 -179.817233 37.339621 18.844566 -69.737547 3.441889 2.743732 30.066010 25.071966 17.795706 40.667058 0.000000 -0.000000 0.000000 -7.822188 -15.097702 -2.096261 11.340739 30.684461 31.443992 18.497399 7.069016 21.952049 0.000000 -0.000000 0.000000 -12.128678 22.207216 21.657879 -0.398406 1.784719 0.856113 2.076936 6.050547 -1.347630 -2.727548 5.507399 -28.121028 5.095393 -14.008489 13.717910 21.072668 -26.851867 -26.300864 13.851054 -26.363823 -24.199698 22.702939 -21.994410 -28.723641 24.543875 -15.710072 -12.555317 -16.741593 34.840001 -26.619538 -29.146409 41.281332 -45.819253 -22.525031 13.324008 -38.092346 -5.149525 18.131337 -18.890059 
1.528599 0.739977 1.004484 -77.604581 37.529946 -160.622183 30.286017 21.029425 -70.372069 3.066948 -2.760620 20.262423 23.673965 20.609307 42.889524 0.000000 -0.000000 0.000000 -9.409006 -19.014920 4.880676 12.129351 32.237540 35.009486 15.498037 18.988520 16.932255 0.000000 -0.000000 0.000000 -9.625762 20.866029 24.979960 -1.061909 -1.482323 -7.263831 3.077522 6.874347 -2.252233 -3.791159 12.263549 -25.400279 8.072513 -1.919586 5.024708 20.432151 -30.112203 -29.843371 12.500656 -25.483386 -23.593184 19.841893 -26.536856 -18.857951 42.143942 -9.513089 -16.405369 -15.237166 37.650655 -22.651314 -28.113849 38.047440 -47.487338 -22.250883 18.406506 -29.535802 -31.235978 16.952273 -29.226060 
1.393927 0.750075 1.030356 -67.900859 27.112340 -144.902307 9.719571 25.518368 -81.419148 11.903394 14.677209 22.536191 -7.987530 -24.481005 -8.649378 0.000000 -0.000000 0.000000 -6.650645 -21.925705 12.124764 -3.988905 26.710868 34.175886 7.229104 25.038435 -8.330696 0.000000 -0.000000 0.000000 -0.957348 16.760459 28.153381 -3.871893 -4.464797 -10.229255 3.149398 7.563889 -7.568234 -8.896009 15.751402 -24.113687 0.031221 17.467967 -6.173564 22.132481 -30.497569 -35.877562 6.532468 -27.605309 -24.344817 19.771346 -30.016865 -16.174661 35.756750 -21.032416 -12.680790 -16.065556 39.757669 -26.021471 -23.108817 39.215137 -46.564055 -24.488833 18.576938 -35.575322 -37.218153 26.227041 -17.456165 
1.274287 0.743224 1.041619 -70.177968 22.186728 -133.064114 16.829596 15.978474 -72.471533 3.179984 3.445989 6.730506 -14.435478 -6.955321 -0.902201 0.000000 -0.000000 0.000000 -14.318466 -13.898684 18.766249 -4.013455 19.835839 32.603376 15.774290 18.350225 -5.344402 0.000000 -0.000000 0.000000 -2.495114 15.692172 24.652661 -3.869719 -4.965513 -13.532511 0.702779 4.817873 -4.581693 -7.265836 17.938169 -29.724726 -3.459783 10.510583 -5.118440 18.726786 -28.170621 -39.219189 9.135582 -35.442734 -20.413771 20.759087 -29.870796 -20.424361 54.203009 -21.799628 -12.280282 -14.088606 36.510868 -29.675891 -25.420117 44.693175 -44.043352 -27.923181 16.886552 -38.908098 -68.015238 26.682790 -20.721281 
1.156502 0.735527 1.044464 -70.642329 18.153731 -121.816154 12.901260 8.300764 -63.518385 0.727600 -1.967480 3.776150 -2.282376 -6.644580 -17.698675 0.000000 -0.000000 0.000000 -17.341176 -11.544288 23.681024 -3.902269 17.213475 30.688186 19.676544 14.952468 -6.073290 0.000000 -0.000000 0.000000 -3.100718 15.582450 21.364341 -3.303703 -5.384906 -16.645985 0.782855 4.764904 -2.269645 -4.492199 15.983119 -27.654762 -6.721192 7.318398 -7.638386 10.607569 -28.159295 -37.160262 11.374129 -41.109854 -21.024027 25.682710 -33.984285 -23.174948 60.523353 -21.751813 -10.699714 -6.221440 34.392089 -27.461363 -26.006450 49.070816 -39.441715 -39.077226 23.457298 -45.155511 -80.319344 25.517735 -25.189465 
